<svg id="oam-logo-h-pos" xmlns="http://www.w3.org/2000/svg" width="832" height="160" viewBox="380 -44 832 160"><style>.st0{fill:#203c46}.st1{fill:#fff}.st2{fill:#e4e8e9}.st3{fill:#68c39f}.st4{fill:#449bb5}.st5{fill:#b8c1c4}.st6{fill:#d2d8da}.st7{fill:#dbe0e1}.st8{fill:#edeff0}</style><path class="st0" d="M630.4 37.1c0 10.2-2.5 18-7.5 23.5s-12.2 8.2-21.6 8.2-16.6-2.7-21.6-8.2-7.5-13.3-7.5-23.6 2.5-18.1 7.6-23.5c5-5.4 12.3-8.1 21.7-8.1 9.4 0 16.6 2.7 21.6 8.2 4.8 5.4 7.3 13.3 7.3 23.5zm-44.8 0c0 6.9 1.3 12.1 3.9 15.6s6.5 5.2 11.7 5.2c10.4 0 15.6-6.9 15.6-20.8s-5.2-20.8-15.5-20.8c-5.2 0-9.1 1.7-11.7 5.2-2.7 3.5-4 8.7-4 15.6zm80.6 31.7c-5.5 0-9.8-2-13-6h-.7c.4 3.9.7 6.2.7 6.8v19.1h-12.8V20.9h10.4l1.8 6.1h.6c3-4.7 7.4-7 13.3-7 5.5 0 9.9 2.1 13 6.4 3.1 4.3 4.7 10.3 4.7 17.9 0 5-.7 9.4-2.2 13.1s-3.6 6.5-6.3 8.5c-2.7 2-5.9 2.9-9.5 2.9zm-3.8-38.5c-3.2 0-5.5 1-6.9 2.9-1.5 2-2.2 5.2-2.3 9.7v1.4c0 5.1.7 8.7 2.2 10.9 1.5 2.2 3.9 3.3 7.1 3.3 5.7 0 8.6-4.7 8.6-14.2 0-4.6-.7-8.1-2.1-10.4-1.4-2.5-3.6-3.6-6.6-3.6zm52.4 38.5c-7.5 0-13.4-2.1-17.7-6.3-4.2-4.2-6.4-10.1-6.4-17.8 0-7.9 2-14 5.9-18.3s9.4-6.5 16.3-6.5c6.6 0 11.8 1.9 15.5 5.7 3.7 3.8 5.5 9 5.5 15.7v6.2h-30.2c.1 3.7 1.2 6.5 3.2 8.6s4.8 3.1 8.5 3.1c2.8 0 5.5-.3 8-.9s5.1-1.5 7.9-2.8v9.9c-2.2 1.1-4.6 2-7.2 2.5-2.6.7-5.7.9-9.3.9zM713 29.1c-2.7 0-4.8.9-6.4 2.6-1.5 1.7-2.4 4.2-2.6 7.4h17.9c-.1-3.2-.9-5.6-2.5-7.4-1.6-1.7-3.7-2.6-6.4-2.6zM786.1 68h-12.8V40.5c0-3.4-.6-6-1.8-7.7-1.2-1.7-3.1-2.6-5.7-2.6-3.6 0-6.2 1.2-7.8 3.6s-2.4 6.4-2.4 12V68h-12.8V20.9h9.8l1.7 6h.7c1.4-2.3 3.4-4 5.9-5.2s5.3-1.7 8.5-1.7c5.5 0 9.6 1.5 12.4 4.4 2.8 3 4.2 7.2 4.2 12.8l.1 30.8zm51.3 0L833 53.3h-22.4L806.2 68h-14l21.6-61.9h15.9L851.4 68h-14zm-7.6-25.6c-4.1-13.3-6.4-20.8-6.9-22.6-.5-1.7-.9-3.1-1.1-4.1-.9 3.6-3.6 12.5-7.9 26.7h15.9zm47.5 26.4c-7.5 0-13.4-2.1-17.7-6.3-4.2-4.2-6.4-10.1-6.4-17.8 0-7.9 2-14 5.9-18.3s9.4-6.5 16.3-6.5c6.6 0 11.8 1.9 15.5 5.7 3.7 3.8 5.5 9 5.5 15.7v6.2h-30.2c.1 3.7 1.2 6.5 3.2 8.6s4.8 3.1 8.5 3.1c2.8 0 5.5-.3 8-.9s5.1-1.5 7.9-2.8v9.9c-2.2 1.1-4.6 2-7.2 2.5-2.5.7-5.6.9-9.3.9zm-1.8-39.7c-2.7 0-4.8.9-6.4 2.6-1.5 1.7-2.4 4.2-2.6 7.4h17.9c-.1-3.2-.9-5.6-2.5-7.4-1.5-1.7-3.7-2.6-6.4-2.6zm56-9.1c1.7 0 3.2.1 4.3.4l-1 12.1c-1-.3-2.3-.4-3.8-.4-4.1 0-7.3 1.1-9.5 3.2-2.3 2.1-3.4 5.1-3.4 8.9v24h-12.8V20.9h9.7l1.9 7.9h.6c1.5-2.6 3.4-4.8 5.9-6.4s5.2-2.4 8.1-2.4zm10.2-11.3c0-4.2 2.3-6.3 7-6.3 4.6 0 7 2.1 7 6.3 0 2-.6 3.5-1.7 4.7-1.2 1.1-2.9 1.7-5.2 1.7-4.8-.1-7.1-2.2-7.1-6.4zM955 68h-12.8V20.9H955V68zm40.9 0l-2.5-6.4h-.3c-2.2 2.7-4.4 4.6-6.6 5.7-2.3 1.1-5.2 1.6-8.9 1.6-4.5 0-8-1.3-10.6-3.9s-3.9-6.3-3.9-11c0-5 1.7-8.7 5.2-11.1S977 39.2 984 39l8.1-.3v-2.1c0-4.8-2.4-7.2-7.3-7.2-3.7 0-8.2 1.1-13.2 3.4l-4.2-8.7c5.4-2.8 11.4-4.3 17.9-4.3 6.3 0 11.1 1.4 14.5 4.1 3.4 2.8 5 6.9 5 12.6V68h-8.9zm-3.8-21.8l-4.9.2c-3.7.1-6.5.8-8.3 2s-2.7 3.1-2.7 5.6c0 3.6 2.1 5.4 6.2 5.4 3 0 5.3-.9 7.1-2.6s2.7-4 2.7-6.8l-.1-3.8zm36.4 21.8h-12.8V2.4h12.8V68zm38.2 0L1052 19.6h-.4c.5 9.8.8 16.4.8 19.7V68h-11.6V6.4h17.7l14.5 47.1h.3l15.4-47.1h17.7V68h-12.1V38.8c0-1.4 0-3 .1-4.8 0-1.8.2-6.6.6-14.3h-.4l-16 48.3h-11.9zm81.7 0l-2.5-6.4h-.3c-2.2 2.7-4.4 4.6-6.6 5.7-2.3 1.1-5.2 1.6-8.9 1.6-4.5 0-8-1.3-10.6-3.9s-3.9-6.3-3.9-11c0-5 1.7-8.7 5.2-11.1s8.7-3.7 15.7-3.9l8.1-.3v-2.1c0-4.8-2.4-7.2-7.3-7.2-3.7 0-8.2 1.1-13.2 3.4l-4.2-8.7c5.4-2.8 11.4-4.3 17.9-4.3 6.3 0 11.1 1.4 14.5 4.1 3.4 2.8 5 6.9 5 12.6V68h-8.9zm-3.8-21.8l-4.9.2c-3.7.1-6.5.8-8.3 2-1.8 1.2-2.7 3.1-2.7 5.6 0 3.6 2.1 5.4 6.2 5.4 3 0 5.3-.9 7.1-2.6 1.8-1.7 2.7-4 2.7-6.8l-.1-3.8zm49.4 22.6c-5.5 0-9.8-2-13-6h-.7c.4 3.9.7 6.2.7 6.8v19.1h-12.8V20.9h10.4l1.8 6.1h.6c3-4.7 7.4-7 13.3-7 5.5 0 9.9 2.1 13 6.4 3.1 4.3 4.7 10.3 4.7 17.9 0 5-.7 9.4-2.2 13.1s-3.6 6.5-6.3 8.5-5.9 2.9-9.5 2.9zm-3.8-38.5c-3.2 0-5.5 1-6.9 2.9-1.5 2-2.2 5.2-2.3 9.7v1.4c0 5.1.7 8.7 2.2 10.9 1.5 2.2 3.9 3.3 7.1 3.3 5.7 0 8.6-4.7 8.6-14.2 0-4.6-.7-8.1-2.1-10.4-1.4-2.5-3.6-3.6-6.6-3.6z"/><path class="st1" d="M380 68l80-112 80 112-16 48-32-8-32-24-32 24-32 8-16-48z"/><path class="st2" d="M420 84v26l8-2 5.1-24H420zm16.4-16L460-44l-40 56v56h16.4z"/><path class="st3" d="M540 68l-40-56v56h40z"/><path class="st2" d="M483.6 68h.4v-78.4L460-44l23.6 112z"/><path class="st4" d="M380 68l16 48 8-2V34.4L380 68z"/><path class="st2" d="M492 108l32 8 10.7-32h-47.8l5.1 24z"/><path class="st5" d="M433.1 84l-5.1 24 32-24V68l-26.9 16zM460 52v-96L436.4 68 460 52z"/><path class="st6" d="M483.6 68L460-44v96l23.6 16zm3.3 16L460 68v16l32 24-5.1-24z"/><path class="st7" d="M436.4 68l-3.3 16L460 68V52l-23.6 16z"/><path class="st1" d="M433.1 84l3.3-16H420V12l-16 22.4V114l16-4V84h13.1zm0 0l2.9-14-2.9 14zM540 68h-40V12l-16-22.4V68h-.4l3.3 16h47.8l5.3-16zm-53.1 16L484 70l2.9 14z"/><path class="st8" d="M460 52v16l26.9 16-3.3-16L460 52z"/></svg>