<?xml version="1.0" encoding="utf-8"?>
<!-- Generator: Adobe Illustrator 19.1.0, SVG Export Plug-In . SVG Version: 6.00 Build 0)  -->
<svg version="1.1" id="oam-logo-h-pos" xmlns="http://www.w3.org/2000/svg" xmlns:xlink="http://www.w3.org/1999/xlink" x="0px"
	 y="0px" width="832px" height="160px" viewBox="380 -44 832 160" style="enable-background:new 380 -44 832 160;"
	 xml:space="preserve">
<style type="text/css">
	.st0{fill:#203C46;}
	.st1{fill:#FFFFFF;}
	.st2{fill:#E4E8E9;}
	.st3{fill:#68C39F;}
	.st4{fill:#449BB5;}
	.st5{fill:#B8C1C4;}
	.st6{fill:#D2D8DA;}
	.st7{fill:#DBE0E1;}
	.st8{fill:#EDEFF0;}
</style>
<path class="st0" d="M630.4,37.1c0,10.2-2.5,18-7.5,23.5s-12.2,8.2-21.6,8.2s-16.6-2.7-21.6-8.2s-7.5-13.3-7.5-23.6
	s2.5-18.1,7.6-23.5c5-5.4,12.3-8.1,21.7-8.1c9.4,0,16.6,2.7,21.6,8.2C627.9,19,630.4,26.9,630.4,37.1z M585.6,37.1
	c0,6.9,1.3,12.1,3.9,15.6s6.5,5.2,11.7,5.2c10.4,0,15.6-6.9,15.6-20.8s-5.2-20.8-15.5-20.8c-5.2,0-9.1,1.7-11.7,5.2
	C586.9,25,585.6,30.2,585.6,37.1z M666.2,68.8c-5.5,0-9.8-2-13-6h-0.7c0.4,3.9,0.7,6.2,0.7,6.8v19.1h-12.8V20.9h10.4l1.8,6.1h0.6
	c3-4.7,7.4-7,13.3-7c5.5,0,9.9,2.1,13,6.4c3.1,4.3,4.7,10.3,4.7,17.9c0,5-0.7,9.4-2.2,13.1s-3.6,6.5-6.3,8.5
	C673,67.9,669.8,68.8,666.2,68.8z M662.4,30.3c-3.2,0-5.5,1-6.9,2.9c-1.5,2-2.2,5.2-2.3,9.7v1.4c0,5.1,0.7,8.7,2.2,10.9
	c1.5,2.2,3.9,3.3,7.1,3.3c5.7,0,8.6-4.7,8.6-14.2c0-4.6-0.7-8.1-2.1-10.4C667.6,31.4,665.4,30.3,662.4,30.3L662.4,30.3z M714.8,68.8
	c-7.5,0-13.4-2.1-17.7-6.3c-4.2-4.2-6.4-10.1-6.4-17.8c0-7.9,2-14,5.9-18.3s9.4-6.5,16.3-6.5c6.6,0,11.8,1.9,15.5,5.7
	c3.7,3.8,5.5,9,5.5,15.7v6.2h-30.2c0.1,3.7,1.2,6.5,3.2,8.6s4.8,3.1,8.5,3.1c2.8,0,5.5-0.3,8-0.9s5.1-1.5,7.9-2.8v9.9
	c-2.2,1.1-4.6,2-7.2,2.5C721.5,68.6,718.4,68.8,714.8,68.8L714.8,68.8z M713,29.1c-2.7,0-4.8,0.9-6.4,2.6c-1.5,1.7-2.4,4.2-2.6,7.4
	h17.9c-0.1-3.2-0.9-5.6-2.5-7.4C717.8,30,715.7,29.1,713,29.1z M786.1,68h-12.8V40.5c0-3.4-0.6-6-1.8-7.7c-1.2-1.7-3.1-2.6-5.7-2.6
	c-3.6,0-6.2,1.2-7.8,3.6s-2.4,6.4-2.4,12V68h-12.8V20.9h9.8l1.7,6h0.7c1.4-2.3,3.4-4,5.9-5.2s5.3-1.7,8.5-1.7
	c5.5,0,9.6,1.5,12.4,4.4c2.8,3,4.2,7.2,4.2,12.8L786.1,68L786.1,68z M837.4,68L833,53.3h-22.4L806.2,68h-14l21.6-61.9h15.9L851.4,68
	H837.4L837.4,68z M829.8,42.4c-4.1-13.3-6.4-20.8-6.9-22.6c-0.5-1.7-0.9-3.1-1.1-4.1c-0.9,3.6-3.6,12.5-7.9,26.7
	C813.9,42.4,829.8,42.4,829.8,42.4z M877.3,68.8c-7.5,0-13.4-2.1-17.7-6.3c-4.2-4.2-6.4-10.1-6.4-17.8c0-7.9,2-14,5.9-18.3
	s9.4-6.5,16.3-6.5c6.6,0,11.8,1.9,15.5,5.7c3.7,3.8,5.5,9,5.5,15.7v6.2h-30.2c0.1,3.7,1.2,6.5,3.2,8.6s4.8,3.1,8.5,3.1
	c2.8,0,5.5-0.3,8-0.9s5.1-1.5,7.9-2.8v9.9c-2.2,1.1-4.6,2-7.2,2.5C884.1,68.6,881,68.8,877.3,68.8L877.3,68.8z M875.5,29.1
	c-2.7,0-4.8,0.9-6.4,2.6c-1.5,1.7-2.4,4.2-2.6,7.4h17.9c-0.1-3.2-0.9-5.6-2.5-7.4C880.4,30,878.2,29.1,875.5,29.1z M931.5,20
	c1.7,0,3.2,0.1,4.3,0.4l-1,12.1c-1-0.3-2.3-0.4-3.8-0.4c-4.1,0-7.3,1.1-9.5,3.2c-2.3,2.1-3.4,5.1-3.4,8.9v24h-12.8V20.9h9.7l1.9,7.9
	h0.6c1.5-2.6,3.4-4.8,5.9-6.4S928.6,20,931.5,20z M941.7,8.7c0-4.2,2.3-6.3,7-6.3c4.6,0,7,2.1,7,6.3c0,2-0.6,3.5-1.7,4.7
	c-1.2,1.1-2.9,1.7-5.2,1.7C944,15,941.7,12.9,941.7,8.7z M955,68h-12.8V20.9H955V68z M995.9,68l-2.5-6.4h-0.3
	c-2.2,2.7-4.4,4.6-6.6,5.7c-2.3,1.1-5.2,1.6-8.9,1.6c-4.5,0-8-1.3-10.6-3.9s-3.9-6.3-3.9-11c0-5,1.7-8.7,5.2-11.1S977,39.2,984,39
	l8.1-0.3v-2.1c0-4.8-2.4-7.2-7.3-7.2c-3.7,0-8.2,1.1-13.2,3.4l-4.2-8.7c5.4-2.8,11.4-4.3,17.9-4.3c6.3,0,11.1,1.4,14.5,4.1
	c3.4,2.8,5,6.9,5,12.6V68H995.9z M992.1,46.2l-4.9,0.2c-3.7,0.1-6.5,0.8-8.3,2s-2.7,3.1-2.7,5.6c0,3.6,2.1,5.4,6.2,5.4
	c3,0,5.3-0.9,7.1-2.6s2.7-4,2.7-6.8L992.1,46.2L992.1,46.2z M1028.5,68h-12.8V2.4h12.8V68z M1066.7,68L1052,19.6h-0.4
	c0.5,9.8,0.8,16.4,0.8,19.7V68h-11.6V6.4h17.7l14.5,47.1h0.3l15.4-47.1h17.7V68h-12.1V38.8c0-1.4,0-3,0.1-4.8
	c0-1.8,0.2-6.6,0.6-14.3h-0.4l-16,48.3H1066.7L1066.7,68z M1148.4,68l-2.5-6.4h-0.3c-2.2,2.7-4.4,4.6-6.6,5.7
	c-2.3,1.1-5.2,1.6-8.9,1.6c-4.5,0-8-1.3-10.6-3.9s-3.9-6.3-3.9-11c0-5,1.7-8.7,5.2-11.1s8.7-3.7,15.7-3.9l8.1-0.3v-2.1
	c0-4.8-2.4-7.2-7.3-7.2c-3.7,0-8.2,1.1-13.2,3.4l-4.2-8.7c5.4-2.8,11.4-4.3,17.9-4.3c6.3,0,11.1,1.4,14.5,4.1c3.4,2.8,5,6.9,5,12.6
	V68H1148.4z M1144.6,46.2l-4.9,0.2c-3.7,0.1-6.5,0.8-8.3,2c-1.8,1.2-2.7,3.1-2.7,5.6c0,3.6,2.1,5.4,6.2,5.4c3,0,5.3-0.9,7.1-2.6
	c1.8-1.7,2.7-4,2.7-6.8L1144.6,46.2L1144.6,46.2z M1194,68.8c-5.5,0-9.8-2-13-6h-0.7c0.4,3.9,0.7,6.2,0.7,6.8v19.1h-12.8V20.9h10.4
	l1.8,6.1h0.6c3-4.7,7.4-7,13.3-7c5.5,0,9.9,2.1,13,6.4c3.1,4.3,4.7,10.3,4.7,17.9c0,5-0.7,9.4-2.2,13.1s-3.6,6.5-6.3,8.5
	S1197.6,68.8,1194,68.8z M1190.2,30.3c-3.2,0-5.5,1-6.9,2.9c-1.5,2-2.2,5.2-2.3,9.7v1.4c0,5.1,0.7,8.7,2.2,10.9
	c1.5,2.2,3.9,3.3,7.1,3.3c5.7,0,8.6-4.7,8.6-14.2c0-4.6-0.7-8.1-2.1-10.4C1195.4,31.4,1193.2,30.3,1190.2,30.3z"/>
<path class="st1" d="M380,68l80-112l80,112l-16,48l-32-8l-32-24l-32,24l-32,8L380,68z"/>
<path class="st2" d="M420,84v26l8-2l5.1-24H420z M436.4,68L460-44l-40,56v56H436.4z"/>
<path class="st3" d="M540,68l-40-56v56H540z"/>
<path class="st2" d="M483.6,68h0.4v-78.4L460-44L483.6,68z"/>
<path class="st4" d="M380,68l16,48l8-2V34.4L380,68z"/>
<path class="st2" d="M492,108l32,8l10.7-32h-47.8L492,108z"/>
<path class="st5" d="M433.1,84l-5.1,24l32-24V68L433.1,84z M460,52v-96L436.4,68L460,52z"/>
<path class="st6" d="M483.6,68L460-44v96L483.6,68z M486.9,84L460,68v16l32,24L486.9,84z"/>
<path class="st7" d="M436.4,68l-3.3,16L460,68V52L436.4,68z"/>
<path class="st1" d="M433.1,84l3.3-16H420V12l-16,22.4V114l16-4V84H433.1z M433.1,84l2.9-14L433.1,84z M540,68h-40V12l-16-22.4V68
	h-0.4l3.3,16h47.8L540,68z M486.9,84L484,70L486.9,84z"/>
<path class="st8" d="M460,52v16l26.9,16l-3.3-16L460,52z"/>
</svg>
